<svg width="56" height="56" viewBox="0 0 56 56" fill="none" xmlns="http://www.w3.org/2000/svg">
<path d="M15.207 31.4796H31.2959V29.7185H15.207V31.4796ZM15.207 24.2241H40.7931V22.463H15.207V24.2241ZM15.207 16.968H40.7931V15.2069H15.207V16.968ZM7.06714 46.7454V10.255C7.06714 9.38505 7.38214 8.63528 8.01214 8.00567C8.64214 7.37567 9.38958 7.06067 10.2545 7.06067H45.7456C46.6105 7.06067 47.358 7.37567 47.988 8.00567C48.618 8.63528 48.933 9.38292 48.933 10.2486V36.4181C48.933 37.2838 48.618 38.0314 47.988 38.661C47.358 39.291 46.6105 39.606 45.7456 39.606H14.2066L7.06714 46.7454ZM13.4506 37.8449H45.7357C46.0947 37.8449 46.4237 37.6954 46.7227 37.3963C47.0218 37.0969 47.1713 36.7677 47.1713 36.4087V10.2579C47.1713 9.89897 47.0218 9.56978 46.7227 9.27033C46.4237 8.97128 46.0947 8.82175 45.7357 8.82175H10.2644C9.90544 8.82175 9.57644 8.97128 9.27739 9.27033C8.97833 9.56978 8.82881 9.89897 8.82881 10.2579V42.6148L13.4506 37.8449Z" fill="black"/>
</svg>
