<svg width="25" height="24" viewBox="0 0 25 24" fill="none" xmlns="http://www.w3.org/2000/svg">
<path d="M17.8309 17.9476L18.6091 17.2331L13.0789 12.1239V5.75568H12.027V12.5408L17.8309 17.9476ZM12.5087 23.8056C10.7849 23.8056 9.16493 23.503 7.64874 22.8979C6.13279 22.2928 4.80772 21.4702 3.67354 20.4301C2.53936 19.3898 1.64356 18.1766 0.986136 16.7906C0.328712 15.4046 0 13.9214 0 12.341C0 10.7588 0.329641 9.272 0.988923 7.88043C1.6482 6.48908 2.54447 5.27292 3.67772 4.23196C4.8112 3.191 6.13302 2.36883 7.64317 1.76544C9.15331 1.16205 10.7694 0.860352 12.4913 0.860352C14.2151 0.860352 15.8351 1.1629 17.3513 1.76799C18.8672 2.37309 20.1923 3.19569 21.3265 4.2358C22.4606 5.2759 23.3564 6.48908 24.0139 7.87532C24.6713 9.26135 25 10.7446 25 12.325C25 13.9071 24.6704 15.3939 24.0111 16.7855C23.3518 18.1769 22.4555 19.393 21.3223 20.434C20.189 21.4749 18.8672 22.2971 17.3568 22.9005C15.8467 23.5039 14.2306 23.8056 12.5087 23.8056ZM12.4913 22.8401C15.6509 22.8401 18.3503 21.8152 20.5894 19.7655C22.8285 17.7157 23.948 15.2409 23.948 12.341C23.948 9.44102 22.8287 6.96352 20.5901 4.90846C18.3514 2.85339 15.6548 1.82586 12.5 1.82586C9.33457 1.82586 6.6352 2.85318 4.40191 4.90782C2.16862 6.96245 1.05197 9.4375 1.05197 12.333C1.05197 15.2382 2.16862 17.7157 4.40191 19.7655C6.6352 21.8152 9.33166 22.8401 12.4913 22.8401Z" fill="black"/>
</svg>
