<svg width="201" height="89" viewBox="0 0 201 89" fill="none" xmlns="http://www.w3.org/2000/svg">
<path d="M89.2152 44.5C89.2152 69.0767 69.2437 89 44.6076 89C19.9715 89 0 69.0767 0 44.5C0 19.9233 19.9715 0 44.6076 0C69.2437 0 89.2152 19.9233 89.2152 44.5Z" fill="#AF0D1A"/>
<path d="M80.374 50.5135C80.374 66.898 67.0597 80.1802 50.6356 80.1802C34.2116 80.1802 20.8972 66.898 20.8972 50.5135C20.8972 34.1291 34.2116 20.8468 50.6356 20.8468C67.0597 20.8468 80.374 34.1291 80.374 50.5135Z" fill="#F5F5F5"/>
<path d="M98.1078 44.9009V32.5852L85.8137 8.98018H94.5584L102.737 26.2221H101.297L109.424 8.98018H118.066L105.824 32.5852V44.9009H98.1078Z" fill="#292F36"/>
<path d="M136.398 45.5167C133.688 45.5167 131.219 44.9864 128.99 43.9259C126.796 42.8312 125.047 41.2062 123.743 39.051C122.475 36.8957 121.84 34.176 121.84 30.8918V8.98018H129.556V30.9431C129.556 32.551 129.813 33.9194 130.328 35.0484C130.876 36.1773 131.665 37.0326 132.694 37.6141C133.757 38.1615 135.026 38.4352 136.5 38.4352C138.009 38.4352 139.278 38.1615 140.307 37.6141C141.37 37.0326 142.176 36.1773 142.725 35.0484C143.273 33.9194 143.548 32.551 143.548 30.9431V8.98018H151.264V30.8918C151.264 34.176 150.578 36.8957 149.206 39.051C147.869 41.2062 146.068 42.8312 143.805 43.9259C141.576 44.9864 139.107 45.5167 136.398 45.5167Z" fill="#292F36"/>
<path d="M105.621 80.6998C102.699 80.6998 100.167 80.0503 98.0258 78.7514C95.8846 77.4236 94.2353 75.5907 93.0779 73.2526C91.9206 70.8857 91.3419 68.1435 91.3419 65.0261C91.3419 61.9087 91.9206 59.181 93.0779 56.8429C94.2353 54.476 95.8846 52.6431 98.0258 51.3442C100.196 50.0164 102.728 49.3525 105.621 49.3525C109.035 49.3525 111.799 50.1607 113.911 51.7771C116.052 53.3647 117.426 55.6162 118.034 58.5315H114.692C114.229 56.5687 113.245 54.9956 111.741 53.8121C110.236 52.5998 108.196 51.9936 105.621 51.9936C103.393 51.9936 101.44 52.5132 99.7618 53.5523C98.0836 54.5915 96.7816 56.0924 95.8557 58.0553C94.9298 59.9892 94.4668 62.3128 94.4668 65.0261C94.4668 67.7394 94.9298 70.0775 95.8557 72.0403C96.7816 73.9742 98.0836 75.4608 99.7618 76.4999C101.44 77.5391 103.393 78.0586 105.621 78.0586C108.196 78.0586 110.222 77.4669 111.697 76.2834C113.202 75.1 114.2 73.5413 114.692 71.6073H118.034C117.398 74.4649 116.023 76.702 113.911 78.3184C111.828 79.906 109.064 80.6998 105.621 80.6998Z" fill="#292F36"/>
<path d="M123.672 80.1802V58.3583H126.666V80.1802H123.672ZM125.191 53.206C124.583 53.206 124.062 53.0039 123.628 52.5998C123.194 52.1668 122.977 51.6328 122.977 50.9978C122.977 50.3339 123.18 49.8143 123.585 49.4391C124.019 49.035 124.54 48.8329 125.147 48.8329C125.755 48.8329 126.276 49.035 126.71 49.4391C127.144 49.8143 127.361 50.3339 127.361 50.9978C127.361 51.6328 127.144 52.1668 126.71 52.5998C126.305 53.0039 125.798 53.206 125.191 53.206Z" fill="#292F36"/>
<path d="M133.283 80.1802V58.3583H136.06L136.277 62.5582C136.74 61.5479 137.363 60.6964 138.144 60.0036C138.925 59.3109 139.865 58.7769 140.965 58.4016C142.064 58.0264 143.309 57.8388 144.697 57.8388V60.9995H143.526C142.6 60.9995 141.703 61.1294 140.835 61.3891C139.967 61.6201 139.2 62.0242 138.534 62.6015C137.869 63.1788 137.334 63.9581 136.929 64.9395C136.523 65.9209 136.321 67.1477 136.321 68.6198V80.1802H133.283Z" fill="#292F36"/>
<path d="M157.668 80.6998C155.642 80.6998 153.834 80.2235 152.243 79.2709C150.651 78.3184 149.393 76.9906 148.467 75.2876C147.541 73.5557 147.078 71.564 147.078 69.3126C147.078 66.9745 147.541 64.9684 148.467 63.2942C149.393 61.5912 150.651 60.2634 152.243 59.3109C153.863 58.3295 155.671 57.8388 157.668 57.8388C160.214 57.8388 162.326 58.5027 164.005 59.8304C165.712 61.1294 166.797 62.8613 167.26 65.0261H164.222C163.903 63.5829 163.137 62.4716 161.921 61.6922C160.735 60.884 159.303 60.4799 157.624 60.4799C156.322 60.4799 155.107 60.8119 153.979 61.4757C152.85 62.1108 151.939 63.0778 151.244 64.3767C150.55 65.6756 150.203 67.3209 150.203 69.3126C150.203 70.7847 150.405 72.0692 150.81 73.166C151.215 74.2629 151.765 75.1866 152.46 75.937C153.154 76.6587 153.95 77.2071 154.847 77.5823C155.744 77.9576 156.67 78.1452 157.624 78.1452C158.724 78.1452 159.722 77.972 160.619 77.6256C161.545 77.2504 162.326 76.7164 162.963 76.0236C163.599 75.3309 164.019 74.4938 164.222 73.5124H167.26C166.826 75.6195 165.755 77.3514 164.048 78.7081C162.341 80.0359 160.214 80.6998 157.668 80.6998Z" fill="#292F36"/>
<path d="M172.489 80.1802V49.0061H175.527V80.1802H172.489Z" fill="#292F36"/>
<path d="M191.061 80.6998C189.036 80.6998 187.242 80.2235 185.679 79.2709C184.146 78.3184 182.93 76.9906 182.033 75.2876C181.165 73.5557 180.731 71.5351 180.731 69.226C180.731 66.9168 181.165 64.9107 182.033 63.2076C182.901 61.5046 184.117 60.1913 185.679 59.2676C187.271 58.315 189.093 57.8388 191.148 57.8388C193.26 57.8388 195.039 58.315 196.486 59.2676C197.962 60.2201 199.076 61.4613 199.828 62.9911C200.609 64.521 201 66.1951 201 68.0136C201 68.3023 201 68.6054 201 68.9229C201 69.2115 200.986 69.5579 200.957 69.962H183.032V67.4075H198.049C197.991 65.1849 197.296 63.4674 195.965 62.2551C194.663 61.0428 193.014 60.4366 191.018 60.4366C189.715 60.4366 188.5 60.7397 187.372 61.3459C186.272 61.9231 185.375 62.7891 184.681 63.9437C184.015 65.0694 183.683 66.4982 183.683 68.2301V69.3559C183.683 71.3187 184.03 72.9495 184.724 74.2485C185.419 75.5474 186.33 76.5143 187.459 77.1494C188.616 77.7844 189.817 78.1019 191.061 78.1019C192.71 78.1019 194.07 77.7411 195.141 77.0195C196.211 76.269 196.978 75.2443 197.441 73.9454H200.436C200.06 75.2154 199.452 76.37 198.613 77.4091C197.803 78.4483 196.761 79.2565 195.488 79.8338C194.215 80.4111 192.739 80.6998 191.061 80.6998Z" fill="#292F36"/>
</svg>
