<svg width="56" height="56" viewBox="0 0 56 56" fill="none" xmlns="http://www.w3.org/2000/svg">
<path d="M11.7361 43.7185V41.9574H15.4718V22.8935C15.4718 19.8761 16.4269 17.1852 18.3371 14.8208C20.2473 12.4563 22.695 11.0011 25.6801 10.4551V9.39633C25.6801 8.73289 25.9004 8.17522 26.341 7.72333C26.7816 7.27106 27.3317 7.04492 27.9913 7.04492C28.6508 7.04492 29.2038 7.27106 29.6503 7.72333C30.0967 8.17522 30.3199 8.73289 30.3199 9.39633V10.4778C33.3202 11.0087 35.7803 12.4563 37.7002 14.8208C39.6198 17.1852 40.5796 19.8761 40.5796 22.8935V41.9574H44.3153V43.7185H11.7361ZM27.9918 49.8167C26.9726 49.8167 26.0931 49.4449 25.3534 48.7013C24.6141 47.9582 24.2445 47.0781 24.2445 46.0612H31.7555C31.7555 47.0855 31.3831 47.9675 30.6384 48.7072C29.8933 49.4468 29.0111 49.8167 27.9918 49.8167ZM17.2328 41.9574H38.8185V22.8935C38.8185 19.9177 37.7563 17.3792 35.6318 15.2781C33.5069 13.1769 30.9579 12.1263 27.9848 12.1263C25.0118 12.1263 22.4766 13.1769 20.3793 15.2781C18.2817 17.3792 17.2328 19.9177 17.2328 22.8935V41.9574Z" fill="black"/>
</svg>
