<svg width="56" height="56" viewBox="0 0 56 56" fill="none" xmlns="http://www.w3.org/2000/svg">
<path d="M14.1774 41.3204C16.3746 39.838 18.5685 38.6719 20.7591 37.8222C22.9494 36.9728 25.363 36.5482 28.0001 36.5482C30.6371 36.5482 33.0482 36.9728 35.2334 37.8222C37.4186 38.6719 39.636 39.838 41.8857 41.3204C43.5564 39.5 44.8551 37.477 45.7818 35.2514C46.7081 33.0262 47.1713 30.6137 47.1713 28.014C47.1713 22.659 45.3126 18.1226 41.5952 14.4048C37.8774 10.6874 33.3457 8.82875 28.0001 8.82875C22.6544 8.82875 18.1227 10.6874 14.4049 14.4048C10.6875 18.1226 8.82881 22.659 8.82881 28.014C8.82881 30.6137 9.2943 33.0262 10.2253 35.2514C11.1563 37.477 12.4737 39.5 14.1774 41.3204ZM27.989 28.8837C26.0294 28.8837 24.3912 28.2217 23.0744 26.8975C21.7572 25.5729 21.0986 23.9309 21.0986 21.9713C21.0986 20.012 21.7609 18.3738 23.0855 17.0567C24.41 15.7399 26.0519 15.0815 28.0111 15.0815C29.9708 15.0815 31.6089 15.7438 32.9257 17.0683C34.2429 18.3925 34.9015 20.0344 34.9015 21.994C34.9015 23.9532 34.2392 25.5914 32.9146 26.9086C31.5901 28.2254 29.9482 28.8837 27.989 28.8837ZM28.0129 48.9329C25.1122 48.9329 22.3864 48.3848 19.8357 47.2885C17.285 46.1922 15.067 44.6966 13.1816 42.8015C11.2967 40.9061 9.80647 38.6929 8.71097 36.162C7.61508 33.6311 7.06714 30.9091 7.06714 27.9959C7.06714 25.1022 7.61528 22.3843 8.71156 19.8421C9.80783 17.2999 11.3035 15.0831 13.1986 13.1915C15.094 11.2999 17.3072 9.80642 19.8381 8.71092C22.3689 7.61503 25.091 7.06708 28.0041 7.06708C30.8979 7.06708 33.6158 7.61522 36.158 8.7115C38.7001 9.80778 40.917 11.3034 42.8086 13.1985C44.7001 15.0939 46.1936 17.3114 47.2891 19.8508C48.385 22.3899 48.933 25.102 48.933 27.9872C48.933 30.8879 48.3848 33.6136 47.2886 36.1643C46.1923 38.7151 44.6966 40.9331 42.8016 42.8184C40.9061 44.7034 38.6887 46.1936 36.1492 47.2891C33.6102 48.385 30.8981 48.9329 28.0129 48.9329ZM27.9971 47.1713C30.1932 47.1713 32.3723 46.794 34.5346 46.0396C36.6968 45.2851 38.6618 44.1451 40.4297 42.6195C38.6618 41.279 36.7327 40.2255 34.6425 39.459C32.5526 38.6925 30.34 38.3092 28.0047 38.3092C25.6698 38.3092 23.4398 38.6766 21.3145 39.4112C19.1888 40.1454 17.2891 41.2148 15.6153 42.6195C17.3533 44.1451 19.3024 45.2851 21.4626 46.0396C23.6225 46.794 25.8007 47.1713 27.9971 47.1713ZM28.0065 27.1227C29.4936 27.1227 30.7209 26.6367 31.6885 25.6649C32.6564 24.6931 33.1404 23.4636 33.1404 21.9765C33.1404 20.4894 32.6543 19.2621 31.6821 18.2945C30.7102 17.3266 29.4808 16.8426 27.9936 16.8426C26.5065 16.8426 25.2792 17.3285 24.3116 18.3003C23.3437 19.2722 22.8597 20.5016 22.8597 21.9888C22.8597 23.4759 23.3458 24.7034 24.3181 25.6713C25.2899 26.6389 26.5194 27.1227 28.0065 27.1227Z" fill="black"/>
</svg>
