<svg width="27" height="28" viewBox="0 0 27 28" fill="none" xmlns="http://www.w3.org/2000/svg">
<path d="M19.5916 23.2997H8.27217V10.6189L15.2677 3.31934L15.617 3.56288C15.7237 3.65777 15.8028 3.77317 15.8544 3.90909C15.906 4.045 15.9317 4.18627 15.9317 4.33288V4.46471L14.7558 10.6189H23.1222C23.5259 10.6189 23.8837 10.7806 24.1957 11.1039C24.5075 11.4275 24.6634 11.7986 24.6634 12.2172V13.686C24.6634 13.794 24.665 13.9097 24.6682 14.0331C24.6714 14.1564 24.6493 14.268 24.6018 14.368L21.4746 21.993C21.3164 22.3675 21.0525 22.6789 20.6829 22.9272C20.3135 23.1755 19.9498 23.2997 19.5916 23.2997ZM9.12126 22.4188H19.7579C19.902 22.4188 20.0607 22.374 20.2337 22.2844C20.4068 22.1945 20.5366 22.0449 20.6233 21.8355L23.8143 13.9955V12.2172C23.8143 12.0228 23.7458 11.8546 23.6087 11.7126C23.4719 11.5705 23.3097 11.4994 23.1222 11.4994H13.7574L15.0393 4.75959L9.12126 10.9902V22.4188ZM8.27217 10.6189V11.4994H4.25339V22.4188H8.27217V23.2997H3.4043V10.6189H8.27217Z" fill="black"/>
</svg>
